HIERARCHY
ROOT Hips
{
	OFFSET 0.00000 0.00000 0.00000
	CHANNELS 6 Xposition Yposition Zposition Zrotation Yrotation Xrotation 
	JOINT LHipJoint
	{
		OFFSET 0 0 0
		CHANNELS 3 Zrotation Yrotation Xrotation
		JOINT LeftUpLeg
		{
			OFFSET 1.46561 -1.72757 0.83774
			CHANNELS 3 Zrotation Yrotation Xrotation
			JOINT LeftLeg
			{
				OFFSET 2.48915 -6.83890 0.00000
				CHANNELS 3 Zrotation Yrotation Xrotation
				JOINT LeftFoot
				{
					OFFSET 2.60555 -7.15868 0.00000
					CHANNELS 3 Zrotation Yrotation Xrotation
					JOINT LeftToeBase
					{
						OFFSET 0.19248 -0.52884 2.26738
						CHANNELS 3 Zrotation Yrotation Xrotation
						End Site
						{
							OFFSET 0.00000 -0.00000 1.17015
						}
					}
				}
			}
		}
	}
	JOINT RHipJoint
	{
		OFFSET 0 0 0
		CHANNELS 3 Zrotation Yrotation Xrotation
		JOINT RightUpLeg
		{
			OFFSET -1.46918 -1.72757 0.83774
			CHANNELS 3 Zrotation Yrotation Xrotation
			JOINT RightLeg
			{
				OFFSET -2.49034 -6.84216 0.00000
				CHANNELS 3 Zrotation Yrotation Xrotation
				JOINT RightFoot
				{
					OFFSET -2.65971 -7.30750 0.00000
					CHANNELS 3 Zrotation Yrotation Xrotation
					JOINT RightToeBase
					{
						OFFSET -0.19227 -0.52827 2.30785
						CHANNELS 3 Zrotation Yrotation Xrotation
						End Site
						{
							OFFSET -0.00000 -0.00000 1.18972
						}
					}
				}
			}
		}
	}
	JOINT LowerBack
	{
		OFFSET 0 0 0
		CHANNELS 3 Zrotation Yrotation Xrotation
		JOINT Spine
		{
			OFFSET 0.02432 2.19909 -0.28000
			CHANNELS 3 Zrotation Yrotation Xrotation
			JOINT Spine1
			{
				OFFSET 0.03714 2.21816 -0.15261
				CHANNELS 3 Zrotation Yrotation Xrotation
				JOINT Neck
				{
					OFFSET 0 0 0
					CHANNELS 3 Zrotation Yrotation Xrotation
					JOINT Neck1
					{
						OFFSET -0.01896 1.56165 0.21681
						CHANNELS 3 Zrotation Yrotation Xrotation
						JOINT Head
						{
							OFFSET 0.02744 1.56009 0.06764
							CHANNELS 3 Zrotation Yrotation Xrotation
							End Site
							{
								OFFSET 0.01212 1.60574 0.00298
							}
						}
					}
				}
				JOINT LeftShoulder
				{
					OFFSET 0 0 0
					CHANNELS 3 Zrotation Yrotation Xrotation
					JOINT LeftArm
					{
						OFFSET 3.05595 1.48048 -0.60794
						CHANNELS 3 Zrotation Yrotation Xrotation
						JOINT LeftForeArm
						{
							OFFSET 5.20607 -0.00000 -0.00000
							CHANNELS 3 Zrotation Yrotation Xrotation
							JOINT LeftHand
							{
								OFFSET 3.39961 -0.00000 0.00000
								CHANNELS 3 Zrotation Yrotation Xrotation
								JOINT LeftFingerBase
								{
									OFFSET 0 0 0
									CHANNELS 3 Zrotation Yrotation Xrotation
									JOINT LeftHandIndex1
									{
										OFFSET 0.51969 -0.00000 0.00000
										CHANNELS 3 Zrotation Yrotation Xrotation
										End Site
										{
											OFFSET 0.41899 -0.00000 0.00000
										}
									}
								}
								JOINT LThumb
								{
									OFFSET 0 0 0
									CHANNELS 3 Zrotation Yrotation Xrotation
									End Site
									{
										OFFSET 0.42539 -0.00000 0.42539
									}
								}
							}
						}
					}
				}
				JOINT RightShoulder
				{
					OFFSET 0 0 0
					CHANNELS 3 Zrotation Yrotation Xrotation
					JOINT RightArm
					{
						OFFSET -2.99052 1.57608 -0.69102
						CHANNELS 3 Zrotation Yrotation Xrotation
						JOINT RightForeArm
						{
							OFFSET -5.32214 -0.00000 0.00000
							CHANNELS 3 Zrotation Yrotation Xrotation
							JOINT RightHand
							{
								OFFSET -3.51208 -0.00000 0.00000
								CHANNELS 3 Zrotation Yrotation Xrotation
								JOINT RightFingerBase
								{
									OFFSET 0 0 0
									CHANNELS 3 Zrotation Yrotation Xrotation
									JOINT RightHandIndex1
									{
										OFFSET -0.58668 -0.00000 0.00000
										CHANNELS 3 Zrotation Yrotation Xrotation
										End Site
										{
											OFFSET -0.47300 -0.00000 0.00000
										}
									}
								}
								JOINT RThumb
								{
									OFFSET 0 0 0
									CHANNELS 3 Zrotation Yrotation Xrotation
									End Site
									{
										OFFSET -0.48022 -0.00000 0.48022
									}
								}
							}
						}
					}
				}
			}
		}
	}
}
MOTION
Frames: 5
Frame Time: .0083333
0.2577 20.4770 -6.7077 0.8145 3.4142 12.3163 0.0000 0.0000 0.0000 -15.0499 -1.6943 -19.1777 5.1450 13.5452 41.4452 1.7195 5.7717 23.6077 0.0233 0.9857 2.7095 0.0000 0.0000 0.0000 16.4753 1.2589 -16.3757 -5.7371 -14.1687 43.9174 -0.7883 -12.7036 16.9900 -1.4468 -7.6037 21.5166 -1.8931 -0.7220 -2.9781 0.8453 -0.9027 2.7361 1.8730 -0.5243 4.5388 -2.5676 -0.1487 -7.7056 1.5640 -0.1271 23.5350 0.9516 -0.1235 8.5825 0.0000 0.0000 0.0000 -88.5788 -14.9895 29.7492 10.8181 -18.0090 -1.7193 -0.0000 0.0000 -12.6294 28.6503 -9.0398 -4.9065 -7.1250 0.0000 -0.0000 1.2311 19.7052 -0.7441 0.0000 0.0000 0.0000 87.9460 9.0931 20.3455 -15.9377 25.4361 -3.6192 0.0000 0.0000 29.0165 -21.1158 -24.2792 9.0228 7.1250 -0.0000 -0.0000 8.9410 -55.5626 -2.3314
0.2519 20.6057 -6.5696 0.7321 3.4006 11.7914 0.0000 0.0000 0.0000 -15.0201 -1.5692 -19.9784 5.4217 13.8436 42.6143 1.6229 5.9506 22.8944 0.0301 1.1199 3.0788 0.0000 0.0000 0.0000 16.4964 1.5835 -17.3553 -6.3165 -14.7282 46.2390 -0.7310 -12.2195 16.3512 -1.4490 -7.6091 21.5330 -1.8827 -0.6859 -2.0050 0.8569 -0.8708 2.9566 1.8904 -0.5071 4.2138 -2.5281 -0.1908 -8.1037 1.5413 -0.1771 23.6130 0.9335 -0.1450 8.6844 0.0000 -0.0000 0.0000 -88.6066 -15.0080 29.3135 10.8457 -18.0513 -1.7278 -0.0000 0.0000 -12.9658 28.6937 -9.1572 -4.9783 -7.1250 0.0000 -0.0000 1.2536 19.5683 -0.7615 0.0000 -0.0000 0.0000 87.9817 9.1744 19.9565 -15.8050 25.2555 -3.5623 0.0000 0.0000 29.1570 -21.0924 -24.3766 9.0454 7.1250 -0.0000 -0.0000 9.0070 -55.6575 -2.3696
0.2455 20.7236 -6.4305 0.6616 3.3844 11.1864 0.0000 0.0000 0.0000 -15.0134 -1.4012 -20.6118 5.6288 14.0587 43.4733 1.5159 5.9646 22.0983 0.0341 1.1919 3.2771 0.0000 0.0000 0.0000 16.5111 1.8018 -18.2344 -6.8511 -15.2052 48.3088 -0.6647 -11.5948 15.5686 -1.4102 -7.5109 21.2380 -1.8928 -0.6498 -0.9295 0.8604 -0.8392 3.1938 1.9114 -0.4902 3.8490 -2.4825 -0.2281 -8.4910 1.5284 -0.2247 23.6874 0.9177 -0.1639 8.7832 0.0000 -0.0000 0.0000 -88.6071 -15.0051 28.9152 10.8489 -18.0563 -1.7288 -0.0000 0.0000 -13.2542 28.7694 -9.2850 -5.0625 -7.1250 0.0000 -0.0000 1.2982 19.4165 -0.7930 0.0000 -0.0000 0.0000 88.0010 9.2214 19.6190 -15.6561 25.0522 -3.4991 0.0000 0.0000 29.3019 -21.1322 -24.4532 9.0901 7.1250 -0.0000 -0.0000 8.9982 -55.7439 -2.3861
0.2385 20.8298 -6.2890 0.6053 3.3786 10.5565 0.0000 0.0000 0.0000 -15.0268 -1.2266 -21.1260 5.7643 14.1959 44.0281 1.4094 5.8344 21.2898 0.0355 1.2159 3.3431 0.0000 0.0000 0.0000 16.5207 1.9258 -19.0488 -7.3210 -15.5963 50.0780 -0.5947 -10.8713 14.6916 -1.3325 -7.3095 20.6356 -1.9261 -0.6187 0.1715 0.8587 -0.8144 3.4242 1.9397 -0.4768 3.4643 -2.4413 -0.2643 -8.8502 1.5327 -0.2753 23.7812 0.9080 -0.1829 8.8837 0.0000 -0.0000 0.0000 -88.5833 -14.9800 28.5417 10.8126 -18.0004 -1.7175 -0.0000 0.0000 -13.3966 28.8599 -9.3999 -5.1434 -7.1250 0.0000 -0.0000 1.3542 19.2773 -0.8314 0.0000 -0.0000 0.0000 87.9980 9.2253 19.3346 -15.4885 24.8222 -3.4284 0.0000 0.0000 29.4751 -21.2080 -24.5131 9.1459 7.1250 -0.0000 -0.0000 8.9445 -55.8208 -2.3885
0.2307 20.9239 -6.1443 0.5600 3.3971 9.9697 0.0000 0.0000 0.0000 -15.0507 -1.0862 -21.5946 5.8323 14.2638 44.3048 1.3092 5.5713 20.5126 0.0356 1.2173 3.3469 0.0000 0.0000 0.0000 16.5330 1.9827 -19.8446 -7.7099 -15.9017 51.5109 -0.5255 -10.1296 13.7784 -1.2437 -7.0712 19.9264 -1.9775 -0.5976 1.2067 0.8542 -0.8023 3.6304 1.9742 -0.4700 3.0940 -2.4083 -0.3001 -9.1825 1.5579 -0.3300 23.9162 0.9066 -0.2025 8.9938 -0.0000 -0.0000 0.0000 -88.5368 -14.9443 28.1773 10.7251 -17.8657 -1.6906 -0.0000 0.0000 -13.3201 28.9540 -9.5244 -5.2306 -7.1250 0.0000 -0.0000 1.4115 19.1270 -0.8713 -0.0000 -0.0000 0.0000 87.9726 9.1953 19.1042 -15.3018 24.5648 -3.3504 0.0000 0.0000 29.6777 -21.2993 -24.5753 9.2099 7.1250 -0.0000 -0.0000 8.8756 -55.9033 -2.3877
